<svg width="64" height="64" viewBox="0 0 64 64" fill="none" xmlns="http://www.w3.org/2000/svg">
<g id="yoga-pose/03">
<path id="Vector" d="M6.96515 31.0168C7.1944 30.4815 7.07665 29.8698 6.6649 29.458C6.1699 28.963 5.3744 28.9068 4.8144 29.3268L3.6964 30.1653C3.4509 30.3495 3.26915 30.6135 3.18465 30.909L2.30465 33.9893C2.2684 34.1155 2.2499 34.2463 2.2499 34.3783V36.6105C2.2499 37.1408 2.15565 37.6613 1.9694 38.1575L1.1719 40.284C0.873401 41.0805 0.964151 41.9865 1.4149 42.7073C1.92065 43.5168 2.79265 44 3.74715 44H13.2499C13.2584 44 13.2669 43.9998 13.2757 43.9993L19.4037 43.685C21.6849 43.568 23.9564 43.1705 26.1547 42.5038C28.2897 41.8565 29.8329 41.5 30.4999 41.5C31.6734 41.5 35.4074 42.1665 37.5812 42.5738L35.6714 43.384C35.2634 43.557 34.9999 43.9553 34.9999 44.3985C34.9999 45.006 35.4942 45.5 36.1017 45.5H47.0842C47.7704 45.5 48.4477 45.32 49.0432 44.9798C49.3919 44.7805 49.6754 44.4978 49.8819 44.1673L53.4884 44.2498C53.4924 44.25 53.4962 44.25 53.4999 44.25C53.5097 44.25 53.5196 44.2498 53.5294 44.249L54.5826 44.187C56.7602 44.059 58.8377 43.169 60.4319 41.6808C61.4224 40.7563 62.1304 39.5758 62.4794 38.2668C62.8334 36.9398 62.8017 35.5463 62.3867 34.2315L61.4549 31.3863C61.5297 31.2633 61.5844 31.1258 61.6139 30.9785L61.9899 29.0983C62.0004 29.0455 62.0024 28.9913 61.9957 28.938L61.4957 24.938C61.4864 24.8645 61.4612 24.794 61.4214 24.7318L60.7269 23.6403C59.9877 22.4788 58.9462 21.5395 57.7149 20.9238L56.7499 20.441V20C56.7499 19.7478 56.5622 19.5353 56.3119 19.504L54.3354 19.257L52.1084 18.7623C52.0889 18.7578 52.0694 18.7548 52.0497 18.7528L50.1844 18.5663C49.6987 18.5175 49.2154 18.5625 48.7472 18.6995L47.6469 19.0215L47.5204 18.8893C46.3919 17.7095 45.1239 16.6643 43.7512 15.7815C42.6934 15.1015 41.3564 14.9528 40.1744 15.3818C39.3569 15.679 38.6697 16.219 38.1874 16.9425L38.1337 17.0228C37.5884 17.8405 37.3661 18.811 37.4882 19.7725L34.1646 21.0658C32.8526 21.5763 31.8054 22.561 31.2157 23.8393C31.1774 23.922 31.1427 24.004 31.1112 24.0853C30.8582 24.7358 30.3792 25.227 29.7824 25.4633C28.4652 24.1573 26.5947 23.3588 24.6049 23.2298C24.6514 21.7245 23.6054 20.3588 22.0804 20.059C20.3852 19.727 18.7344 20.8345 18.4014 22.53C18.2224 23.441 18.4687 24.383 19.0431 25.0975C18.9512 25.1853 18.8609 25.2748 18.7739 25.3683C17.5937 26.6355 16.9917 28.3095 17.0784 30.081C17.3404 35.4208 20.8819 35.856 24.5159 35.8095L25.6814 36.2413L25.6124 36.2675L12.2709 38.8423C11.7414 38.9443 11.2007 38.974 10.6624 38.9288L8.6824 38.7638C7.74415 38.0493 7.1259 36.9778 6.97915 35.8043L6.52665 32.1845C6.51765 32.1113 6.52815 32.0368 6.55715 31.9693L6.96515 31.0168ZM48.5469 44.1115C48.1024 44.3658 47.5964 44.5 47.0842 44.5H36.1017C36.0457 44.5 35.9999 44.4543 35.9999 44.3985C35.9999 44.3575 36.0242 44.3208 36.0619 44.3048L43.9452 40.9603C44.1299 40.8818 44.2499 40.7008 44.2499 40.5C44.2499 38.2993 43.7467 36.0878 42.7944 34.1038L41.5831 31.5803L41.6749 31.5725C42.2944 31.5193 42.9046 31.3865 43.4884 31.178L45.8359 30.3395L47.4262 39.6215C47.4934 40.0058 47.6554 40.3715 47.8949 40.679L48.9562 42.0435C49.1456 42.2873 49.2499 42.5913 49.2499 42.9C49.2499 43.3998 48.9807 43.8638 48.5469 44.1115ZM32.7189 32.4213C32.7044 32.32 32.5872 31.9195 32.4247 31.393L34.0702 31.574L36.3261 33.7628C36.4196 33.8535 36.5129 33.9383 36.6062 34.0203L33.4574 34.1555C33.0264 34.172 32.5977 34.2068 32.1716 34.2585C32.1917 34.2378 32.2119 34.217 32.2289 34.1953C32.3722 34.0105 32.7092 33.52 32.7454 32.9555C32.7559 32.794 32.7474 32.6195 32.7189 32.4213ZM37.8294 33.7033C37.5574 33.523 37.2934 33.3075 37.0227 33.0448L35.9634 32.0173C36.0387 32.0208 36.1137 32.0248 36.1892 32.0248C36.3269 32.0248 36.4654 32.019 36.6044 32.0073L40.5177 31.6718L41.8927 34.5363C41.9879 34.7345 42.0767 34.9358 42.1622 35.1385L39.6974 34.5705C39.1516 34.4448 38.4709 34.1288 37.8294 33.7033ZM61.5134 38.0088C61.2129 39.1365 60.6029 40.1533 59.7496 40.9498C58.3251 42.279 56.4694 43.0745 54.5239 43.189L53.4909 43.2498L50.2314 43.1753C50.2419 43.0843 50.2499 42.9928 50.2499 42.9C50.2499 42.37 50.0706 41.848 49.7454 41.4298L48.6839 40.065C48.5444 39.8858 48.4501 39.673 48.4114 39.4508L47.8484 36.1645C49.2094 38.1583 50.8384 39.9498 52.6994 41.4883L53.3367 40.7178C51.4781 39.1813 49.8574 37.3845 48.5194 35.3775L47.4349 33.751L46.7919 29.998L49.6682 28.9708C49.7117 28.955 49.7529 28.9338 49.7906 28.9068L53.0532 26.5763C55.0797 28.923 56.7192 31.5595 57.9231 34.419L58.0389 34.694L58.9607 34.3058L58.8449 34.0308C58.1292 32.3308 57.2602 30.7098 56.2569 29.1748L58.6367 28.9673L59.1277 31.0045C59.2579 31.5905 59.7679 31.9995 60.3679 31.9995C60.4457 31.9995 60.5221 31.9918 60.5966 31.978L61.4347 34.537C61.7911 35.6658 61.8181 36.866 61.5134 38.0088ZM56.1477 25.6693L56.6062 26.6123C56.7724 27.012 57.1034 27.314 57.5174 27.4423C57.6597 27.4868 57.8054 27.5085 57.9504 27.5085C58.0602 27.5085 58.1684 27.4923 58.2749 27.4675L58.3994 27.9845L55.6117 28.2275C55.0662 27.458 54.4859 26.712 53.8689 25.9933L54.8439 25.2968L56.1477 25.6693ZM59.8834 24.1768L60.5177 25.1735L60.9937 28.9813L60.6334 30.7823C60.6082 30.9083 60.4967 30.9998 60.3679 30.9998C60.2402 30.9998 60.1314 30.9125 60.1017 30.779L59.1567 26.858C59.3614 26.5505 59.4482 26.1718 59.3794 25.7938L58.9916 23.6605L58.0077 23.8393L58.3954 25.9728C58.4279 26.151 58.3514 26.331 58.2006 26.4315C58.0862 26.508 57.9449 26.5278 57.8139 26.4875C57.7366 26.4635 57.5969 26.3973 57.5271 26.2223C57.5226 26.2113 57.5179 26.2003 57.5126 26.1893L56.9872 25.1085L56.7467 22.9445C56.7356 22.8448 56.6947 22.7505 56.6294 22.6743L55.6134 21.489L56.2114 21.2895L57.2679 21.8178C58.3374 22.3525 59.2416 23.1683 59.8834 24.1768ZM55.6369 20.4273L54.5917 20.7758C54.4337 20.8285 54.3124 20.9563 54.2679 21.1165C54.2234 21.2768 54.2619 21.449 54.3702 21.5755L55.7699 23.2085L55.9207 24.5645L54.8871 24.2693C54.7414 24.2278 54.5837 24.2548 54.4592 24.343L49.2659 28.0525L43.1519 30.236C42.6489 30.416 42.1229 30.5303 41.5891 30.576L36.5189 31.0105C35.0067 31.1415 33.5464 30.3688 32.8019 29.045C32.3436 28.23 32.3327 27.2508 32.7727 26.4258C33.2537 25.5243 34.1892 24.9828 35.1789 24.9828C35.3854 24.9828 35.5944 25.0063 35.8022 25.0553L37.6354 25.4868C37.6652 25.4935 37.6957 25.498 37.7262 25.4995L42.9762 25.7495C43.0074 25.75 43.0392 25.7493 43.0707 25.7448L48.3207 24.9948C48.3672 24.9883 48.4124 24.975 48.4552 24.956L53.4552 22.706C53.6347 22.6253 53.7499 22.4468 53.7499 22.25V20.957L54.4307 20.2763L55.6369 20.4273ZM39.0764 23.2405C39.5072 23.1388 40.1082 23.028 40.5242 23.061C41.0502 23.1015 42.9301 23.6335 44.1917 24.018L44.4496 24.5378L42.9764 24.7483L39.2999 24.5733L39.0764 23.2405ZM51.1254 22.6578L49.5359 20.996C49.8199 21.0348 50.1742 21.1055 50.6127 21.2308C51.4294 21.464 52.0037 21.8165 52.3671 22.099L51.1254 22.6578ZM49.0282 19.659C49.3724 19.5583 49.7281 19.5255 50.0849 19.561L51.9207 19.7445L53.2524 20.0405L52.8964 20.3965C52.8027 20.4903 52.7499 20.6175 52.7499 20.75V21.1388C52.3072 20.831 51.6939 20.4998 50.8871 20.2693C49.6912 19.9275 48.9652 19.9258 48.5669 19.983L48.4257 19.8353L49.0282 19.659ZM38.9657 17.5778L39.0194 17.4975C39.3829 16.952 39.9004 16.5455 40.5162 16.3218C41.4067 15.9983 42.4139 16.1105 43.2104 16.623C44.5167 17.4623 45.7234 18.4575 46.7976 19.5805L50.1579 23.0935L48.1091 24.0155L45.4921 24.3893L43.9479 21.278L43.0522 21.7228L43.5839 22.794C42.5642 22.4968 41.1477 22.1065 40.6009 22.0643C40.0609 22.0233 39.3797 22.146 38.9112 22.2535L38.5044 19.8273C38.3587 19.0413 38.5227 18.2423 38.9657 17.5778ZM34.5274 21.9978L37.6504 20.7828L38.2776 24.5245L37.8197 24.5028L36.0312 24.0818C35.0224 23.845 33.9924 24.045 33.1627 24.578L32.5427 23.538C33.0364 22.8465 33.7201 22.3118 34.5274 21.9978ZM31.9904 24.5643L32.3919 25.2375C32.2004 25.4533 32.0307 25.6923 31.8907 25.9553C31.2892 27.083 31.3042 28.4213 31.9307 29.5353C32.1079 29.8503 32.3187 30.1388 32.5544 30.4008L32.0982 30.3505C31.7374 29.2155 31.3389 27.9978 31.2579 27.7628C31.0767 27.2358 30.8041 26.7235 30.4599 26.249C31.1329 25.896 31.6712 25.308 31.9904 24.5643ZM19.3827 22.723C19.6094 21.5685 20.7329 20.812 21.8879 21.0408C22.9324 21.246 23.6469 22.1855 23.6052 23.2205C22.1914 23.2915 20.8872 23.7265 19.8177 24.4678C19.4279 23.981 19.2609 23.3415 19.3827 22.723ZM18.0772 30.032C18.0037 28.5323 18.5109 27.118 19.5057 26.0495C20.5297 24.95 22.0062 24.2995 23.6637 24.2185C25.6049 24.1235 27.4927 24.7593 28.8229 25.9335C28.1371 26.49 26.9559 27.2635 26.0647 27.135C25.0397 26.9888 24.2652 27.1095 23.7622 27.494C23.4269 27.75 23.2207 28.1175 23.1659 28.5563C23.0689 29.3303 23.7032 29.8438 24.2257 30.1305L20.9132 34.4575C19.3089 33.9483 18.2106 32.7523 18.0772 30.032ZM24.6021 34.808C24.5996 34.808 24.5972 34.808 24.5947 34.808C23.6716 34.8233 22.7907 34.8098 21.9902 34.6955L25.4052 30.2345C25.5037 30.1058 25.5332 29.9375 25.4854 29.7828C25.4377 29.6283 25.3176 29.506 25.1637 29.4553C24.7214 29.3093 24.1252 28.9438 24.1582 28.6798C24.1799 28.506 24.2469 28.3818 24.3692 28.2883C24.5279 28.1673 24.9409 27.984 25.9237 28.125C27.3034 28.3195 28.8077 27.2473 29.5159 26.6583C29.8674 27.1013 30.1399 27.5883 30.3122 28.0885C30.5627 28.816 31.6599 32.238 31.7302 32.57C31.7477 32.696 31.7537 32.8013 31.7477 32.891C31.7354 33.0835 31.6222 33.3408 31.4507 33.5668C31.1047 33.8245 29.1799 33.9953 28.4514 34.06C27.6689 34.1293 27.4876 34.15 27.3451 34.2133C26.9794 34.375 26.7556 34.7385 26.7754 35.138L26.7974 35.5878L24.7757 34.839C24.7201 34.8185 24.6614 34.808 24.6021 34.808ZM27.7762 35.1318C27.9297 35.11 28.2507 35.0818 28.5396 35.056C28.6644 35.045 28.7849 35.034 28.9027 35.0228C28.7699 35.0693 28.6369 35.1148 28.5052 35.165L27.7912 35.437L27.7762 35.1318ZM25.8447 37.241C25.8731 37.2355 25.9009 37.2275 25.9279 37.2173L28.8614 36.0998C30.3479 35.5333 31.9072 35.2153 33.4984 35.1543L37.9904 34.9615C38.4169 35.1895 38.9369 35.4213 39.4729 35.545L42.5751 36.26C42.9827 37.5235 43.2139 38.846 43.2462 40.1705L39.2362 41.8718C38.1812 41.6653 32.1562 40.5 30.4999 40.5C29.7922 40.5 28.4517 40.7875 26.5149 41.3535L25.4689 37.3135L25.8447 37.241ZM8.2094 39.657C8.28265 39.7093 8.36865 39.7408 8.4584 39.7483L10.5797 39.925C11.2084 39.9773 11.8412 39.9435 12.4604 39.824L24.4849 37.5035L25.5549 41.6358C23.5304 42.224 21.4459 42.579 19.3521 42.6868L13.2372 43H3.74715C3.13965 43 2.5849 42.6925 2.2629 42.1775C1.97615 41.7185 1.9184 41.1418 2.10815 40.635L2.90565 38.5085C3.13415 37.8993 3.2499 37.2608 3.2499 36.6103V34.378C3.2499 34.3395 3.25515 34.301 3.2659 34.264L4.14615 31.1835C4.1709 31.0968 4.2244 31.0193 4.29665 30.965L5.41465 30.1265C5.57965 30.0038 5.8129 30.02 5.95815 30.165C6.07915 30.2858 6.11365 30.4655 6.0464 30.6228L5.63865 31.575C5.53965 31.8055 5.5039 32.0593 5.5349 32.3085L5.9874 35.9283C6.1739 37.4225 6.9839 38.7818 8.2094 39.657Z" fill="#332D2D"/>
</g>
</svg>
