<svg width="64" height="64" viewBox="0 0 64 64" fill="none" xmlns="http://www.w3.org/2000/svg">
<g id="yoga-pose/11">
<path id="Vector" d="M8.07783 29.9265C7.63383 30.113 7.20557 30.3735 6.80333 30.6897C6.07933 29.9815 4.98783 29.6282 3.82733 29.7567C2.89333 29.86 2.05708 30.33 1.47308 31.0807C0.892076 31.8272 0.630076 32.7625 0.735076 33.714C0.918326 35.373 2.27833 36.6605 3.92983 36.8285C4.09358 38.8452 5.24833 40.9715 6.93408 42.3185C7.77033 42.9868 8.98133 43.3675 10.1153 43.3672C10.5243 43.3672 10.9233 43.3177 11.2908 43.2142C12.7441 42.805 14.9141 41.6648 15.3831 41.414L16.6391 41.2785L10.4743 53.533L2.51208 56.83C2.49333 56.8378 2.47508 56.8468 2.45708 56.8568C2.12583 57.0443 1.88558 57.3643 1.79858 57.735C1.70208 58.1448 1.79683 58.569 2.05808 58.899C2.31933 59.229 2.71083 59.4183 3.13158 59.4183H12.9013C13.8658 59.4183 14.6623 58.6942 14.7538 57.7337L14.9616 55.5518L22.0441 46.206C22.7598 45.2615 23.3638 44.2323 23.8396 43.1468L27.0138 35.901C27.7028 35.042 34.7821 26.1912 37.0576 22.2947C37.9488 24.7015 38.8288 26.8467 39.4508 27.824C40.6421 29.6955 42.5321 32.5583 43.5528 34.0982C44.2248 35.1117 45.0276 36.035 45.9393 36.8418L46.1578 37.035C47.2848 38.0322 48.2223 39.2075 48.9443 40.5283L53.0068 47.9598L56.0521 55.4232L49.8781 58.2098C49.3586 58.4443 49.0231 58.964 49.0231 59.5337C49.0231 60.3102 49.6308 60.9478 50.4066 60.9847C50.4146 60.985 50.4226 60.9852 50.4306 60.9852C50.4358 60.9852 50.4411 60.9853 50.4463 60.985L60.6253 60.663C60.6356 60.6627 60.6456 60.662 60.6558 60.6613C61.5053 60.5825 62.2691 60.1335 62.7508 59.4292C63.4826 58.36 63.4018 56.9282 62.5551 55.9478L61.4036 54.6143L58.6918 44.639C58.1361 42.5952 57.2303 40.6852 55.9993 38.9618L51.5026 32.6662L47.0886 17.659L45.7623 10.9392C45.3708 8.95575 44.3161 7.132 42.7923 5.8035L42.3021 5.376C40.7828 4.0515 38.8383 3.2555 36.8261 3.13475L35.3358 3.04525C33.9858 2.965 32.6051 3.19025 31.3458 3.699C28.8891 4.6915 25.6788 6.086 24.3358 7.09325L22.3043 8.617C22.2913 8.627 22.2788 8.63775 22.2666 8.64875C22.1213 8.3455 21.9438 8.05575 21.7273 7.7895C21.4588 7.45925 21.0611 7.25725 20.6363 7.2355C20.4213 7.225 20.2088 7.26075 20.0121 7.33725L18.4213 6.815C17.5721 6.53625 16.6438 6.63775 15.8743 7.094L11.7461 9.542C11.3996 9.7475 11.1841 10.1257 11.1841 10.5287C11.1841 11.1612 11.6986 11.676 12.3311 11.676H12.7526L11.1803 13.125C10.5928 13.6665 10.3871 14.5025 10.6556 15.2545L10.7396 15.4897C10.9283 16.0185 11.3346 16.4445 11.8538 16.6585C12.0413 16.7357 12.2381 16.7822 12.4366 16.7995C11.2006 18.044 10.4313 19.661 10.2493 21.4282L10.1423 22.4657C9.99983 23.852 10.2361 25.2517 10.8258 26.5137C11.2843 27.4945 12.0026 28.3245 12.8911 28.9287C12.5266 28.94 12.1596 28.973 11.7986 29.0105C10.4773 29.1485 9.15583 29.4737 8.07783 29.9265ZM1.72908 33.6042C1.65283 32.913 1.84208 32.235 2.26208 31.695C2.67908 31.1592 3.27383 30.824 3.93708 30.7507C4.77233 30.658 5.54783 30.8927 6.06033 31.3672C4.91132 32.5737 4.09683 34.2348 3.94058 35.8223C2.79158 35.6647 1.85683 34.7615 1.72908 33.6042ZM7.55858 41.5375C6.00833 40.2987 4.96858 38.3208 4.91008 36.498C4.83983 34.3133 6.50108 31.6732 8.46483 30.8485C8.99208 30.627 9.58582 30.44 10.2103 30.2927C9.81233 33.2247 10.8738 40.2687 11.1821 42.2038C11.1271 42.2207 11.0728 42.237 11.0198 42.252C9.95533 42.5518 8.43508 42.2377 7.55858 41.5375ZM21.2473 45.6025L14.0793 55.0615C14.0233 55.1355 13.9891 55.2235 13.9801 55.3162L13.7588 57.6398C13.7166 58.084 13.3481 58.419 12.9018 58.419H3.13208C2.97658 58.419 2.88383 58.3313 2.84233 58.2788C2.80083 58.2262 2.73658 58.116 2.77233 57.9647C2.79408 57.8725 2.85058 57.792 2.92933 57.7405L11.0291 54.3865C11.1398 54.3405 11.2306 54.2565 11.2843 54.1493L16.8358 43.1135C17.4918 43.3952 18.6921 43.8433 19.7008 43.8433C20.5226 43.8433 21.6596 43.7815 22.4391 43.7323C22.0901 44.3848 21.6943 45.0125 21.2473 45.6025ZM26.1928 35.3268C26.1653 35.3613 26.1423 35.399 26.1246 35.4393L22.9456 42.6958C22.2976 42.741 20.7213 42.843 19.7006 42.843C18.8966 42.843 17.8783 42.4683 17.2863 42.2175L17.9451 40.908L17.9433 40.907C17.9771 40.84 17.9981 40.7655 17.9986 40.686L18.0061 39.333C18.7571 38.865 20.8663 37.3818 20.8986 35.5088L23.1953 28.5005C24.3793 28.1832 25.4376 27.5437 26.2668 26.6315C27.1741 25.6335 27.7348 24.3975 27.8878 23.0575L27.9423 22.5822C28.0896 21.2932 28.5258 20.027 29.2038 18.9205C30.0206 17.588 31.1776 16.488 32.5483 15.7402L34.4406 14.7152C35.0106 16.457 35.7921 18.7915 36.5996 21.0385C35.0886 24.241 26.2836 35.214 26.1928 35.3268ZM16.3376 30.0005C16.3526 30.001 16.3673 30.0017 16.3826 30.0017C16.4188 30.0017 16.4548 29.9977 16.4903 29.99L18.1716 29.6195L17.7768 31.1315C17.7761 31.1307 17.7746 31.1292 17.7738 31.1285C17.3446 30.698 16.8431 30.3322 16.3191 30.0047C16.3251 30.0037 16.3313 30.0017 16.3376 30.0005ZM19.2681 29.3777L22.0571 28.763L20.3086 34.098C19.8211 33.377 19.1268 32.5747 18.5871 31.985L19.2681 29.3777ZM31.4301 15.2465L26.7288 6.8425C27.4481 6.47625 28.3218 6.068 29.3351 5.626L32.6341 14.557L32.0711 14.862C31.8516 14.9815 31.6391 15.1112 31.4301 15.2465ZM57.7268 44.9015L60.4683 54.9865C60.4881 55.0588 60.5236 55.1255 60.5726 55.1823L61.7983 56.6017C62.3488 57.2393 62.4013 58.17 61.9256 58.865C61.6151 59.3188 61.1243 59.6098 60.5778 59.6645L50.4381 59.9852C50.2038 59.9657 50.0228 59.7708 50.0228 59.534C50.0228 59.3565 50.1273 59.1945 50.2893 59.1213L56.9028 56.1365C57.1481 56.026 57.2618 55.741 57.1601 55.492L53.9221 47.556C53.9151 47.5385 53.9068 47.5215 53.8978 47.505L50.2461 40.8252C51.2523 40.623 53.0611 40.053 54.4256 38.4798L55.1853 39.5435C56.3476 41.17 57.2026 42.9728 57.7268 44.9015ZM31.7201 4.6265C32.8426 4.173 34.0713 3.971 35.2758 4.04375L36.7661 4.13325C38.5586 4.24075 40.2913 4.95 41.6446 6.12975L42.1348 6.55725C43.4926 7.741 44.4323 9.366 44.7811 11.133L46.1118 17.8752C46.1148 17.8902 46.1183 17.905 46.1226 17.9195L50.5666 33.0295C50.5823 33.083 50.6071 33.1337 50.6396 33.179L53.8243 37.6377C52.4861 39.3185 50.4893 39.7803 49.7348 39.8978C48.9691 38.537 47.9906 37.3215 46.8201 36.2858L46.6018 36.0928C45.7553 35.3435 45.0098 34.4867 44.3861 33.5457C43.3673 32.0087 41.4808 29.1517 40.2943 27.2872C38.5721 24.581 34.5491 11.79 34.5086 11.661L33.5546 11.9602C33.5903 12.0745 33.8006 12.7427 34.1258 13.7485L33.5218 14.0757L30.2548 5.2315C30.7211 5.035 31.2078 4.8335 31.7201 4.6265ZM22.9263 9.40075L24.9361 7.89375C25.1636 7.723 25.4713 7.52875 25.8473 7.315L30.6151 15.8377C29.7226 16.5535 28.9528 17.4177 28.3516 18.3985C27.5976 19.6285 27.1126 21.036 26.9491 22.4692L26.8946 22.9445C26.7653 24.075 26.2926 25.1175 25.5271 25.9595C24.7721 26.79 23.7936 27.3567 22.6976 27.5982L18.3891 28.5477C19.5168 27.2272 20.2928 25.612 20.6053 23.9007L22.4613 13.742C22.4646 13.7245 22.4668 13.7065 22.4681 13.6887L22.6788 10.8165C22.7066 10.4375 22.6811 10.0617 22.6118 9.69625L22.9263 9.40075ZM20.5846 8.23425C20.7296 8.24175 20.8596 8.30775 20.9513 8.42075C21.4838 9.07625 21.7431 9.90075 21.6813 10.743L21.4726 13.5885L19.6216 23.7207C19.2818 25.5805 18.3341 27.3157 16.9528 28.607C16.6318 28.9072 16.1986 29.0712 15.7568 29.0507C15.1823 29.0272 14.6701 28.7145 14.3866 28.2142C13.7253 27.0472 13.5428 25.6882 13.8726 24.3882L14.3861 22.3632L17.3361 12.3112C17.6256 11.3252 18.1626 10.4202 18.8888 9.6935L20.2011 8.3815C20.2973 8.2855 20.4228 8.2335 20.5576 8.2335C20.5666 8.2335 20.5756 8.23375 20.5846 8.23425ZM11.6813 15.1537L11.5973 14.9185C11.4638 14.5447 11.5661 14.1295 11.8578 13.8607L14.3721 11.5437C14.5233 11.4042 14.5738 11.186 14.4988 10.9942C14.4241 10.8022 14.2391 10.6762 14.0331 10.6762H12.3311C12.2501 10.6762 12.1841 10.6102 12.1841 10.529C12.1841 10.4772 12.2116 10.4287 12.2561 10.4025L16.3841 7.9545C16.9051 7.6455 17.5338 7.5765 18.1088 7.76575L19.0831 8.0855L18.1813 8.987C17.8183 9.35025 17.4988 9.7535 17.2226 10.1842C17.1001 9.6865 17.1331 9.26 17.1338 9.2535L16.6358 9.20825L16.1381 9.16125C16.1333 9.213 16.0361 10.3492 16.6206 11.3427C16.5286 11.5677 16.4448 11.7965 16.3763 12.0302L15.8066 13.972L14.6046 14.9627L13.0363 15.7125C12.7811 15.8347 12.4961 15.8425 12.2346 15.7345C11.9731 15.6262 11.7763 15.42 11.6813 15.1537ZM11.7321 26.0905C11.2188 24.9922 11.0133 23.7745 11.1373 22.5682L11.2441 21.5307C11.4258 19.767 12.2793 18.1748 13.6476 17.047L15.3053 15.6807L13.4218 22.0997L12.9036 24.1425C12.5891 25.382 12.6661 26.666 13.1118 27.8425C12.5291 27.37 12.0526 26.7762 11.7321 26.0905ZM13.1416 29.9255C13.7193 29.9255 14.2658 30.0007 14.7156 30.2402C15.5573 30.6882 16.4246 31.1915 17.0653 31.8342C18.3183 33.0912 19.8638 34.9753 19.9036 35.4272C19.9401 36.818 18.0118 38.1968 17.2656 38.6105C17.1076 38.6982 17.0088 38.8645 17.0078 39.0452L17.0013 40.234L15.1788 40.4305C15.1141 40.4375 15.0511 40.457 14.9936 40.4883C14.9746 40.4988 13.4981 41.2982 12.1391 41.8537C11.6456 38.7082 10.7718 32.0617 11.2561 30.0905C11.4708 30.0575 11.6863 30.028 11.9026 30.0055C12.3161 29.9625 12.7366 29.9255 13.1416 29.9255Z" fill="#332D2D"/>
</g>
</svg>
