<svg width="64" height="64" viewBox="0 0 64 64" fill="none" xmlns="http://www.w3.org/2000/svg">
<g id="yoga-pose/16">
<path id="Vector" d="M62.1134 58.3035L58.1162 56.966L59.7727 40.6735C59.8167 40.2692 59.6934 39.857 59.4347 39.543C58.0799 37.8977 56.3334 36.572 54.3839 35.7095L45.8257 31.923L45.6627 29.7585C45.6604 29.7282 45.6517 29.7 45.6442 29.6712L45.6482 29.6702C45.2347 28.0795 44.7242 26.4452 44.2302 24.8645C43.8449 23.6315 42.9437 21.8792 41.5519 19.6555C39.7047 16.7045 37.3827 14.0672 34.6507 11.8172C33.9544 11.244 33.2634 10.612 32.5317 9.94274C30.6109 8.18599 28.6247 6.36949 26.3362 5.44749C25.1252 4.95949 24.0982 4.56449 23.2842 4.27374C20.3199 3.21524 12.2712 3.18999 11.7367 3.18949L5.11693 2.75274C5.10118 2.75174 5.08568 2.75149 5.06943 2.75199C4.54843 2.76724 4.07868 3.08649 3.87293 3.56624C3.71018 3.94649 3.72968 4.37299 3.92668 4.73674C4.12392 5.10024 4.47068 5.34949 4.87818 5.42049L7.66718 5.90549C7.52243 6.11824 7.46268 6.37924 7.50467 6.64299C7.56192 7.00499 7.79942 7.30249 8.13967 7.43849C8.42267 7.55199 8.73868 7.53474 9.00743 7.39124L11.7899 5.90699L16.8679 7.07899C17.0324 7.11699 17.2012 7.14799 17.3687 7.17074L21.6524 7.75499L29.5862 13.746L29.1482 14.4745L28.5404 14.587C28.5429 14.0572 28.4514 13.5312 28.1989 13.072C27.8282 12.3985 26.6749 12.069 26.0244 11.9332L25.7789 11.003C25.7452 10.8747 25.6617 10.7652 25.5472 10.6985C25.4327 10.6315 25.2962 10.6127 25.1679 10.6472L23.6404 11.0505C23.2634 11.0525 21.4014 11.0677 20.3464 11.187C19.2982 11.3057 18.1517 12.0527 17.6202 12.9637C16.8664 14.2557 16.6437 15.895 17.0189 17.239C15.9902 17.8332 15.4499 19.0372 15.7672 20.172C16.0904 21.3285 17.1454 22.087 18.2914 22.087C18.5242 22.087 18.7607 22.0555 18.9957 21.9897C19.7832 21.7697 20.4097 21.2735 20.7377 20.6462C21.0587 20.7275 21.3807 20.7752 21.6954 20.7777C21.7314 20.778 21.7672 20.7782 21.8037 20.7782C23.2939 20.7782 25.2032 20.5405 26.3462 19.4937L26.3534 19.522L25.7737 21.6475L24.1234 24.3295C24.1032 24.362 24.0869 24.397 24.0749 24.4332L21.3557 32.591L18.6572 36.3275C18.6504 36.337 18.6439 36.3465 18.6377 36.3565L14.8789 42.4122L10.3424 46.357C10.0464 46.614 9.91043 47.0125 9.98743 47.3965C10.0252 47.5847 10.1144 47.7525 10.2362 47.8935L4.42493 54.1215L1.68893 56.3105C1.65168 56.3405 1.61143 56.3697 1.57068 56.3992C1.46543 56.4767 1.34593 56.564 1.23968 56.675C0.588925 57.3552 0.750425 58.3095 0.837175 58.8225C0.843675 58.8602 0.849675 58.9027 0.856425 58.9487C0.913675 59.342 1.00018 59.9367 1.46593 60.2055C1.57868 60.2705 1.92868 60.3025 2.37168 60.3025C3.37518 60.3025 4.85593 60.139 5.13793 59.8257C5.38618 59.5497 5.45093 59.1955 5.47793 58.9537C5.53918 58.4065 5.74242 57.323 5.83267 56.9145L13.2434 52.1165C14.1799 51.5102 15.1752 50.9822 16.2017 50.5467L21.5762 48.2667L28.0502 45.5565C29.8107 44.8195 31.4884 43.8797 33.0364 42.7637L38.4767 38.8417C39.9644 39.4632 47.3234 42.4637 52.7512 43.345L53.9579 57.4435L53.7697 58.0515C53.6032 58.5895 53.6299 59.1725 53.8452 59.693C54.2209 60.6027 55.0999 61.1902 56.0839 61.1902H61.6427C62.4597 61.1902 63.1242 60.5255 63.1242 59.7085C63.1249 59.0702 62.7184 58.5055 62.1134 58.3035ZM32.9754 29.3087C33.4727 29.3517 34.2004 29.398 35.0327 29.398C36.2547 29.398 37.7004 29.2982 38.9647 28.9417C41.0079 28.3657 42.9219 27.4307 43.8299 26.9547C44.0982 27.834 44.3562 28.7145 44.5884 29.5832C43.8382 30.0787 41.7219 31.3787 39.7352 31.695C37.3657 32.0722 34.1417 31.5782 32.9172 31.3595C33.0497 30.6857 33.0712 29.9917 32.9754 29.3087ZM43.2757 25.1627C43.3602 25.4335 43.4454 25.7072 43.5304 25.9807C42.7469 26.3975 40.7612 27.396 38.6932 27.9792C36.5332 28.5885 33.6799 28.3752 32.7394 28.281C32.4167 27.2835 31.8442 26.372 31.0729 25.656L26.7992 21.6877L27.2142 20.1665C28.3944 20.437 29.6502 19.9695 30.3559 18.938L30.5317 18.6812C31.3654 17.4625 31.1587 15.8192 30.1114 14.814L30.4967 14.173L36.9902 15.3795C38.3844 16.8627 39.6292 18.4685 40.7044 20.1865C42.0507 22.3372 42.9159 24.0115 43.2757 25.1627ZM17.4527 44.034L17.5539 43.8965L22.8172 37.791C22.8347 37.7707 22.8507 37.7487 22.8647 37.7257L26.4359 31.899C26.7394 31.4037 27.0092 30.8817 27.2377 30.347L29.3439 25.415L30.3924 26.3887C31.2232 27.16 31.7834 28.201 31.9702 29.3197C32.1559 30.4342 31.9652 31.597 31.4337 32.5942L31.3044 32.836C30.9139 33.568 30.3452 34.2022 29.6594 34.67L27.5694 36.0947C26.6197 36.7422 25.7062 37.4622 24.8542 38.2342L19.4187 43.1602L17.4527 44.034ZM21.9172 6.78174L17.5037 6.17999C17.3662 6.16124 17.2284 6.13599 17.0934 6.10449L11.8324 4.89049C11.7147 4.86324 11.5912 4.87974 11.4847 4.93674L8.53667 6.50899C8.52892 6.51349 8.51967 6.51399 8.51117 6.51024C8.50467 6.50774 8.49518 6.50399 8.49243 6.48674C8.48968 6.46949 8.49743 6.46324 8.50293 6.45874L9.08568 5.97324C9.23542 5.84849 9.29893 5.64824 9.24868 5.45999C9.19843 5.27174 9.04317 5.12999 8.85143 5.09649L5.04993 4.43499C4.90693 4.40999 4.83568 4.31474 4.80593 4.25999C4.77618 4.20499 4.73493 4.09324 4.79192 3.95999C4.84218 3.84299 4.95393 3.76299 5.07993 3.75249L11.6869 4.18849C11.6979 4.18924 11.7089 4.18949 11.7199 4.18949C11.8034 4.18949 20.1084 4.20149 22.9474 5.21549C23.7489 5.50174 24.7632 5.89199 25.9619 6.37524C28.0827 7.22949 30.0012 8.98424 31.8564 10.681C32.5979 11.3592 33.2984 11.9995 34.0144 12.5895C34.6147 13.0837 35.1914 13.6 35.7502 14.132L30.4534 13.148L22.1509 6.87824C22.0827 6.82649 22.0022 6.79324 21.9172 6.78174ZM27.8614 17.3967C28.0304 17.013 28.2839 16.358 28.4292 15.6247L29.3324 15.4575C30.1079 16.121 30.2834 17.2727 29.7062 18.1165L29.5304 18.3732C29.0309 19.1032 28.1182 19.4082 27.2902 19.1497L27.1434 18.5715C27.4232 18.204 27.6777 17.814 27.8614 17.3967C27.8612 17.397 27.8612 17.397 27.8614 17.3967ZM18.7264 21.0272C17.8667 21.2667 16.9707 20.7632 16.7302 19.9032C16.5482 19.2517 16.8402 18.56 17.4114 18.1727C17.9287 19.0615 18.8104 19.8315 19.7892 20.2997C19.5729 20.6315 19.1949 20.8965 18.7264 21.0272ZM21.7027 19.778C20.2602 19.7672 18.5589 18.573 18.0617 17.2222C17.6462 16.0932 17.8119 14.6197 18.4839 13.4677C18.8564 12.829 19.7239 12.264 20.4587 12.1807C20.4592 12.1807 20.4599 12.1807 20.4604 12.1805C20.4839 13.5085 20.7722 16.911 22.9499 19.7227C22.5617 19.7622 22.1462 19.7817 21.7027 19.778ZM24.0869 19.5282C21.7624 16.8657 21.4852 13.3235 21.4629 12.1065C22.5169 12.054 23.6919 12.0505 23.7077 12.0505C23.7504 12.0505 23.7929 12.045 23.8342 12.034L24.9399 11.742L25.1387 12.4947C25.1892 12.6857 25.3472 12.829 25.5422 12.8607C26.2689 12.979 27.1792 13.293 27.3232 13.5542C27.9094 14.62 27.1827 16.4562 26.9459 16.994C26.7007 17.5512 26.2709 18.0862 25.8432 18.582C25.4759 19.0075 24.8752 19.3267 24.0869 19.5282ZM10.9979 47.112L15.5917 43.1172C15.6294 43.0845 15.6619 43.0462 15.6884 43.0037L19.4777 36.8987L22.2109 33.1142C22.2407 33.0732 22.2637 33.0277 22.2799 32.9797L25.0049 24.8042L26.3434 22.629L28.5652 24.692L26.3179 29.954C26.1087 30.444 25.8614 30.9225 25.5834 31.3762L22.0334 37.1682L16.7842 43.2575C16.7759 43.267 16.7679 43.277 16.7604 43.2872L14.1974 46.7657C14.1444 46.8377 14.0869 46.9057 14.0247 46.969C14.1132 46.7875 14.0842 46.5692 13.9484 46.417C13.8054 46.2562 13.5757 46.2055 13.3784 46.2902L11.0962 47.268C11.0622 47.2827 11.0337 47.2742 11.0159 47.2647C10.9979 47.2555 10.9749 47.2365 10.9677 47.2002C10.9612 47.168 10.9727 47.1342 10.9979 47.112ZM15.8114 49.626C14.7319 50.0837 13.6852 50.6392 12.7002 51.277L5.12718 56.18C5.05468 56.227 4.99568 56.2917 4.95568 56.3685C4.83393 56.6017 4.53168 58.4197 4.48443 58.8425C4.47168 58.9577 4.45267 59.0447 4.42817 59.1015C3.98217 59.2357 2.41818 59.3575 1.96118 59.315C1.90368 59.1977 1.86443 58.928 1.84643 58.8045C1.83868 58.7505 1.83118 58.7002 1.82368 58.6552C1.72218 58.0552 1.70993 57.6302 1.96293 57.366C2.00818 57.3187 2.08643 57.2615 2.16193 57.206C2.21443 57.1677 2.26618 57.1295 2.31418 57.091L5.07868 54.8792C5.09768 54.864 5.11518 54.8475 5.13168 54.83L11.2662 48.255C11.3422 48.2402 11.4174 48.2185 11.4902 48.1872L12.6679 47.6825C12.6909 47.8365 12.7577 47.9842 12.8667 48.1062C13.0254 48.284 13.2484 48.3795 13.4762 48.3795C13.5847 48.3795 13.6942 48.358 13.7984 48.3132C14.2772 48.1082 14.6934 47.778 15.0024 47.3587L16.2537 45.6607L17.0239 45.3185L19.5982 48.0192L15.8114 49.626ZM39.4332 38.1522L39.8244 37.8702L39.2397 37.0592L32.4519 41.9525C30.9654 43.024 29.3547 43.9262 27.6642 44.634L21.1879 47.345L20.5819 47.602L17.9944 44.8872L19.8982 44.0412C19.9467 44.0197 19.9914 43.9907 20.0309 43.955L25.5257 38.975C26.3437 38.2337 27.2209 37.5427 28.1327 36.9207L30.2229 35.496C31.0417 34.9375 31.7209 34.1802 32.1867 33.3065L32.3159 33.0647C32.4429 32.8267 32.5489 32.579 32.6429 32.327C33.8439 32.5485 37.2789 33.098 39.8922 32.6822C41.7852 32.381 43.7137 31.3152 44.7297 30.6817L44.8514 32.2962C44.8652 32.48 44.9792 32.6412 45.1477 32.716L53.9797 36.6237C55.7872 37.4235 57.4067 38.6527 58.6629 40.1785C58.7514 40.286 58.7937 40.427 58.7782 40.569L58.4237 44.0562C56.2477 45.2427 54.5034 44.8682 53.8679 44.6587L53.7677 43.487C53.9257 43.5052 54.0827 43.5225 54.2359 43.536L54.3237 42.54C49.5389 42.1192 41.9319 39.1657 39.4332 38.1522ZM61.6434 60.19H56.0847C55.5067 60.19 54.9909 59.8447 54.7699 59.3107C54.6437 59.005 54.6279 58.6625 54.7257 58.3467L54.9427 57.6457C54.9617 57.584 54.9687 57.5192 54.9632 57.455L53.9587 45.7205C54.3247 45.8077 54.8064 45.8832 55.3782 45.8832C56.1954 45.8832 57.1979 45.7225 58.3044 45.2267L57.0807 57.2625C57.0569 57.4952 57.1977 57.713 57.4194 57.7872L61.7962 59.2512C61.9927 59.3172 62.1247 59.5005 62.1247 59.7077C62.1249 59.974 61.9089 60.19 61.6434 60.19Z" fill="#332D2D"/>
</g>
</svg>
