<svg width="64" height="64" viewBox="0 0 64 64" fill="none" xmlns="http://www.w3.org/2000/svg">
<g id="yoga-pose/23">
<path id="Vector" d="M53.7541 53.3243C54.8306 53.0658 55.7438 52.3083 56.1968 51.298L56.5813 50.4408C57.1418 49.1908 56.9306 47.7085 56.0431 46.6648C55.6943 46.2548 55.2493 45.9238 54.7561 45.7075L53.3583 45.095C51.5991 44.324 49.7616 43.814 47.8748 43.5653L46.0201 32.6943C46.0128 32.647 46.0068 32.5995 46.0021 32.552L45.7916 30.447C45.5356 27.8863 45.0396 25.335 44.3173 22.864L44.0473 21.9403C43.8371 21.2205 43.4398 20.5663 42.8986 20.0475C42.1886 19.3675 41.2466 19.015 40.2853 19.051L36.2883 17.2128C36.3826 17.0743 36.4753 16.9325 36.5658 16.784C37.6278 15.0378 38.2461 12.8515 38.2198 10.935C38.1938 9.04151 37.5381 7.26651 36.3736 5.93701C36.2056 5.74526 36.0293 5.56776 35.8466 5.40151C35.8866 5.21951 35.9231 5.02151 35.9203 4.81351C35.8903 2.63826 34.0973 0.887514 31.9206 0.922764C29.7453 0.953014 28.0001 2.74726 28.0298 4.92226C28.0331 5.14651 28.0791 5.33326 28.1273 5.50051C27.9468 5.67401 27.7726 5.85876 27.6078 6.05801C26.4806 7.41901 25.8738 9.21126 25.8998 11.105C25.9263 13.0213 26.6046 15.19 27.7143 16.9063C27.7783 17.005 27.8436 17.1 27.9091 17.1943L23.6451 19.051C22.6821 19.0138 21.7378 19.366 21.0266 20.0473C20.4853 20.566 20.0881 21.2203 19.8778 21.9398L19.6076 22.8638C18.8853 25.3348 18.3893 27.886 18.1333 30.4468L17.9231 32.551C17.9181 32.5988 17.9121 32.6465 17.9058 32.6875L16.1968 42.8583C14.5833 43.0003 12.9998 43.473 11.5726 44.2685C10.6826 44.7643 10.0373 45.6175 9.80255 46.6093C9.48355 47.9565 9.9703 49.3925 11.0428 50.2683C12.0751 51.1108 13.2286 51.7683 14.4601 52.223L14.2446 58.6593C14.2443 58.67 14.2443 58.6808 14.2446 58.6915C14.2468 58.7653 14.2236 58.818 14.2128 58.8305L12.8161 60.443C12.5113 60.795 12.3941 61.325 12.5098 61.826C12.6098 62.2593 12.8678 62.5933 13.2171 62.7423L14.6393 63.3488C14.7631 63.4013 14.8951 63.4278 15.0218 63.4278C15.0641 63.4278 15.1056 63.4248 15.1463 63.419L18.4938 63.0205C18.8296 62.9715 19.1253 62.749 19.3053 62.4108C19.5223 62.0025 19.5488 61.4973 19.3816 61.064L20.2253 60.9338C20.6008 60.8765 20.8998 60.5635 20.9693 60.1555C21.0631 59.6045 20.7558 59.0805 20.2843 58.9873L18.1521 58.5653C18.1471 58.5513 18.1421 58.5325 18.1398 58.509L19.0526 54.768C20.4381 55.515 21.9381 56.1835 23.0353 56.296C25.4251 56.5423 31.0963 55.2038 32.0751 54.9665C32.9761 55.2453 37.9386 56.749 40.1313 56.749C41.1758 56.749 43.2841 56.2178 45.3456 55.613L46.1836 58.5173C46.1811 58.537 46.1768 58.5533 46.1723 58.5653L44.0403 58.9873C43.5688 59.0805 43.2613 59.6045 43.3551 60.1555C43.4246 60.5638 43.7236 60.8765 44.0986 60.9338L44.9426 61.064C44.7753 61.497 44.8018 62.0025 45.0188 62.4108C45.1988 62.7493 45.4946 62.9715 45.8436 63.0223L49.1658 63.4173C49.2111 63.4238 49.2566 63.427 49.3018 63.427C49.4323 63.427 49.5626 63.4005 49.6856 63.3485L51.1071 62.7423C51.4563 62.5933 51.7143 62.2593 51.8143 61.826C51.9301 61.325 51.8128 60.795 51.5078 60.443L50.1113 58.8308C50.1003 58.818 50.0768 58.7653 50.0793 58.6915C50.0798 58.6735 50.0793 58.655 50.0781 58.6368L49.7306 54.2228C50.2251 54.056 50.5603 53.9395 50.6688 53.9018C51.7056 53.7593 52.7361 53.5688 53.7541 53.3243ZM18.6793 52.0055C17.9336 49.8845 18.1068 47.5538 19.1718 45.5618L19.2481 45.4193C23.2886 44.954 35.1206 46.3743 35.2468 46.3898C35.3883 46.407 35.5313 46.3625 35.6386 46.2678C35.7456 46.1728 35.8068 46.0365 35.8068 45.8935V45.0225C35.8068 44.7458 35.9298 44.486 36.1443 44.3108C36.3208 44.1663 36.5421 44.0925 36.7713 44.104L39.7421 44.249C39.8756 44.2535 40.0046 44.2088 40.1028 44.1193L43.5313 41.0025C43.6551 40.89 43.8131 40.8328 43.9818 40.8408L45.0293 40.8905C45.1338 40.8955 45.2366 40.927 45.3258 40.9813C45.4968 41.086 45.6051 41.2603 45.6228 41.4598C45.6406 41.6593 45.5646 41.85 45.4146 41.9828L43.1648 43.977C42.9406 44.176 42.6911 44.3468 42.4241 44.4845L37.3933 47.0785C37.3843 47.083 37.3758 47.0878 37.3673 47.093L35.3486 48.2918C33.0951 49.6298 30.6491 50.5688 28.0791 51.083L25.9223 51.5143C23.5361 51.9915 21.1048 52.156 18.6793 52.0055ZM19.5041 43.0398C19.4401 42.5428 19.7106 42.0495 20.1828 41.849C20.4061 41.7538 20.6583 41.7333 20.8948 41.7908L21.3198 41.894C22.1776 42.1023 22.9193 42.6213 23.4091 43.3558L23.5706 43.5983C23.6458 43.711 23.7636 43.7885 23.8971 43.8128L25.1946 44.0488C25.6248 44.127 26.0308 44.2965 26.3886 44.538C25.2538 44.4593 24.1211 44.3958 23.0643 44.3605L20.4581 43.2748C20.4403 43.2675 20.4223 43.261 20.4041 43.256C20.1068 43.1703 19.8061 43.1005 19.5041 43.0398ZM23.5738 36.278L23.7701 36.7768C24.2691 38.044 24.4206 39.425 24.2083 40.7703L23.9491 42.4143C23.6261 42.027 23.2426 41.7003 22.8148 41.443L23.5738 36.278ZM25.1296 41.3483H39.5238L39.8393 43.0075L39.5836 43.24L36.8201 43.105C36.3438 43.0823 35.8796 43.2353 35.5111 43.537C35.0636 43.903 34.8068 44.4445 34.8068 45.0225V45.3313C33.6496 45.1973 30.9046 44.8925 27.9383 44.6543C27.3156 43.8268 26.3966 43.2508 25.3736 43.0648L24.8733 42.9738L25.1296 41.3483ZM40.4248 40.7325C40.2191 39.65 40.2546 38.5285 40.5246 37.4615L41.1626 41.8048L40.7073 42.2185L40.4248 40.7325ZM35.8588 49.1515L37.8648 47.9603L38.8981 47.4275L39.6456 47.3328C42.0546 47.0265 44.5286 47.1613 46.8971 47.7163C46.1958 49.4663 46.2183 51.4558 46.9713 53.1915C46.7728 53.1955 46.5743 53.2005 46.3761 53.2008L42.8171 53.204C42.8073 53.204 42.7978 53.204 42.7883 53.204C40.5091 53.204 38.2266 52.9488 36.0043 52.4455L31.0656 51.3268C32.7338 50.7795 34.3388 50.054 35.8588 49.1515ZM54.3543 46.6235C54.7093 46.779 55.0301 47.0175 55.2811 47.3128C55.9201 48.0643 56.0723 49.1313 55.6688 50.0315L55.2843 50.8888C54.9571 51.6183 54.2978 52.165 53.5203 52.3523C51.7268 52.7828 49.8938 53.0495 48.0518 53.152L47.9718 52.984C47.2231 51.4108 47.1928 49.5663 47.8718 47.9713C48.1413 48.0488 48.4098 48.1298 48.6758 48.2185L50.0711 48.6835L50.3873 47.7348L48.9921 47.2698C46.5258 46.448 43.8971 46.0825 41.2953 46.1918L42.8821 45.3735C43.2231 45.1978 43.5416 44.9798 43.8281 44.7255L44.2491 44.3523L45.7636 44.3958C48.2538 44.4673 50.6738 45.0108 52.9563 46.011L54.3543 46.6235ZM45.7926 43.3963L45.3423 43.3833L46.0778 42.7315C46.3298 42.508 46.4998 42.2215 46.5771 41.907L46.8411 43.4548C46.4931 43.4268 46.1436 43.4063 45.7926 43.3963ZM42.2058 20.7695C42.6208 21.1673 42.9253 21.669 43.0866 22.2208L43.3568 23.1448C44.0618 25.5563 44.5458 28.0468 44.7958 30.5465L45.0063 32.6513C45.0128 32.7168 45.0213 32.7815 45.0323 32.8545L46.3576 40.6228C46.2281 40.426 46.0563 40.2565 45.8468 40.1283C45.6146 39.9868 45.3483 39.9048 45.0766 39.8918L44.0293 39.842C43.5971 39.822 43.1801 39.9708 42.8583 40.263L42.0538 40.9943L40.8478 32.7845C40.5666 30.8708 40.0728 28.9848 39.3798 27.179L37.9943 23.5683C37.7673 22.9768 37.7648 22.324 37.9873 21.7305C38.2941 20.9125 38.9858 20.3083 39.8378 20.1143C40.6898 19.9193 41.5751 20.165 42.2058 20.7695ZM31.9333 1.92226C33.5173 1.89576 34.8206 3.13426 34.9108 4.69676C34.0111 4.14726 33.0023 3.86251 31.9606 3.87551C30.9161 3.89001 29.9168 4.20226 29.0338 4.77626C29.0818 3.21276 30.3541 1.94426 31.9333 1.92226ZM28.3771 6.69551C29.3338 5.54051 30.6113 4.89426 31.9743 4.87551C31.9948 4.87526 32.0151 4.87501 32.0356 4.87501C33.3758 4.87501 34.6468 5.48451 35.6203 6.59576C36.5681 7.67776 37.1201 9.11026 37.2026 10.6535C35.9908 9.74526 33.6846 8.20551 31.9741 8.20551C30.2763 8.20551 28.0828 9.71001 26.9121 10.6193C26.9853 9.14051 27.4943 7.76101 28.3771 6.69551ZM26.9513 11.8715C27.9841 10.9958 30.4173 9.20551 31.9738 9.20551C33.5338 9.20551 36.0826 11.0113 37.1706 11.8938C37.0236 13.3785 36.5068 14.954 35.7103 16.264C34.7073 17.9133 33.4158 18.869 32.1671 18.886C30.9201 18.9098 29.6013 17.9838 28.5531 16.3625C27.6903 15.028 27.1173 13.399 26.9513 11.8715ZM33.9048 19.4448C33.6681 20.2053 32.9578 20.7588 32.1203 20.7588C31.2811 20.7588 30.5696 20.2025 30.3346 19.4395C30.9173 19.7335 31.5208 19.8865 32.1303 19.8865C32.1471 19.8865 32.1641 19.8865 32.1808 19.8863C32.7691 19.878 33.3481 19.7265 33.9048 19.4448ZM29.2521 18.7088V18.8903C29.2521 20.4718 30.5388 21.7588 32.1206 21.7588C33.7023 21.7588 34.9891 20.472 34.9891 18.8903V18.704C35.2203 18.5023 35.4456 18.2765 35.6633 18.026L38.7626 19.4513C37.9821 19.8545 37.3683 20.534 37.0516 21.3788C36.7433 22.2013 36.7466 23.1058 37.0613 23.9258L38.4468 27.5365C39.1133 29.2735 39.5886 31.0878 39.8588 32.929L40.1888 35.1755L39.6966 36.7188C39.3238 37.888 39.2088 39.1313 39.3551 40.3475H25.2671C25.3861 39.012 25.1933 37.662 24.7003 36.41L23.8656 34.2893L24.0653 32.929C24.3358 31.0878 24.8111 29.2735 25.4776 27.5365L26.8631 23.9258C27.1778 23.1058 27.1811 22.2013 26.8728 21.3788C26.5601 20.5448 25.9571 19.8733 25.1908 19.4683L28.5451 18.0068C28.7743 18.266 29.0098 18.5015 29.2521 18.7088ZM18.8931 32.8468C18.9031 32.782 18.9113 32.7173 18.9181 32.6518L19.1286 30.5468C19.3786 28.047 19.8626 25.5565 20.5676 23.145L20.8378 22.2208C20.9991 21.6693 21.3036 21.1675 21.7186 20.7698C22.3493 20.1653 23.2356 19.9198 24.0863 20.1143C24.9383 20.308 25.6301 20.9123 25.9368 21.7305C26.1593 22.324 26.1568 22.9765 25.9298 23.5683L24.5443 27.179C23.8516 28.9848 23.3576 30.8708 23.0763 32.7845L21.8676 41.0138C21.7648 40.9808 21.6616 40.9483 21.5558 40.9225L21.1311 40.8193C20.6876 40.7113 20.2118 40.7505 19.7916 40.9288C18.9946 41.2675 18.4978 42.0503 18.4918 42.883C18.0686 42.8365 17.6438 42.8133 17.2188 42.8135L18.8931 32.8468ZM10.7758 46.84C10.9461 46.1208 11.4141 45.5018 12.0596 45.1423C13.6396 44.2618 15.4283 43.8098 17.2221 43.8098C18.1908 43.8098 19.1611 43.9415 20.1006 44.209L20.4241 44.3438C19.5848 44.3698 18.8816 44.4343 18.3856 44.5485L13.9261 45.5775L14.1508 46.552L18.0131 45.6608C17.1291 47.6343 16.9846 49.8493 17.6008 51.9178L17.5296 51.9108C15.3761 51.6975 13.3516 50.8618 11.6753 49.4935C10.8973 48.859 10.5443 47.8173 10.7758 46.84ZM17.1531 58.334C17.1451 58.3668 17.1403 58.4003 17.1391 58.4338C17.1188 58.9808 17.4361 59.4435 17.8926 59.5333L19.9851 59.9475V59.9593L18.5958 60.173C18.4396 60.1978 18.2908 60.3055 18.2176 60.446C18.1398 60.595 18.1371 60.774 18.2098 60.9238L18.4311 61.3838C18.5041 61.5355 18.5083 61.7378 18.4418 61.899C18.4026 61.9943 18.3568 62.028 18.3621 62.0293L15.0306 62.4288L13.6091 61.8225C13.5761 61.8083 13.5153 61.7378 13.4838 61.601C13.4406 61.4145 13.4768 61.2075 13.5718 61.0978L14.9688 59.485C15.1498 59.2758 15.2498 58.9828 15.2446 58.6785L15.4496 52.5573C15.7963 52.7963 16.8591 53.5145 18.1468 54.261L17.1531 58.334ZM32.2408 53.971C32.1533 53.9438 32.0596 53.9408 31.9706 53.9628C31.9066 53.9785 25.5296 55.5473 23.1368 55.3015C21.7556 55.1598 19.5183 53.9383 17.8978 52.948C18.7373 53.021 19.5778 53.0598 20.4181 53.0598C22.3296 53.0595 24.2376 52.8708 26.1181 52.4945L28.2746 52.0633C28.5316 52.0118 28.7861 51.9528 29.0406 51.8933L35.7828 53.4205C38.0778 53.9405 40.4343 54.204 42.7878 54.204H42.8176L46.3766 54.2008C46.4396 54.2008 46.5026 54.1983 46.5656 54.1978C44.1713 54.9445 41.3178 55.7488 40.1306 55.7488C37.9186 55.749 32.2973 53.9888 32.2408 53.971ZM49.0791 58.6915C49.0768 58.991 49.1766 59.279 49.3551 59.4855L50.7516 61.098C50.8466 61.2075 50.8828 61.4148 50.8396 61.6013C50.8081 61.738 50.7473 61.8085 50.7143 61.8228L49.2956 62.4263L45.9758 62.0318C45.9666 62.0283 45.9208 61.9948 45.8816 61.8995C45.8151 61.7383 45.8193 61.5363 45.8923 61.3843L46.1128 60.9255C46.1861 60.7745 46.1833 60.5953 46.1056 60.4463C46.0321 60.3055 45.8826 60.1975 45.7256 60.1733L44.3376 59.9595C44.3376 59.9555 44.3376 59.9518 44.3376 59.9483L46.4301 59.5338C46.8873 59.444 47.2046 58.9813 47.1843 58.4343C47.1828 58.3938 47.1763 58.3533 47.1651 58.3143L46.3028 55.3268C47.1948 55.0545 48.0421 54.7825 48.7526 54.549L49.0791 58.6915Z" fill="#332D2D"/>
</g>
</svg>
