<svg width="24" height="24" viewBox="0 0 24 24" fill="none" xmlns="http://www.w3.org/2000/svg">
<g id="Instagram">
<path id="Vector" d="M12.0027 5.76421C8.59743 5.76421 5.85075 8.47275 5.85075 11.8307C5.85075 15.1886 8.59743 17.8972 12.0027 17.8972C15.4079 17.8972 18.1546 15.1886 18.1546 11.8307C18.1546 8.47275 15.4079 5.76421 12.0027 5.76421ZM12.0027 15.7747C9.80212 15.7747 8.00312 14.006 8.00312 11.8307C8.00312 9.65542 9.79677 7.88669 12.0027 7.88669C14.2086 7.88669 16.0022 9.65542 16.0022 11.8307C16.0022 14.006 14.2032 15.7747 12.0027 15.7747ZM19.8412 5.51606C19.8412 6.30275 19.1987 6.93105 18.4062 6.93105C17.6085 6.93105 16.9713 6.29747 16.9713 5.51606C16.9713 4.73465 17.6138 4.10108 18.4062 4.10108C19.1987 4.10108 19.8412 4.73465 19.8412 5.51606ZM23.9157 6.95217C23.8247 5.05672 23.3856 3.37775 21.9775 1.99444C20.5747 0.611136 18.8721 0.178193 16.9499 0.0831567C14.9689 -0.0277189 9.03112 -0.0277189 7.05008 0.0831567C5.1333 0.172913 3.43068 0.605856 2.02253 1.98916C0.614389 3.37247 0.180703 5.05144 0.0843279 6.94689C-0.0281093 8.90041 -0.0281093 14.7557 0.0843279 16.7092C0.175349 18.6047 0.614389 20.2836 2.02253 21.6669C3.43068 23.0503 5.12794 23.4832 7.05008 23.5782C9.03112 23.6891 14.9689 23.6891 16.9499 23.5782C18.8721 23.4885 20.5747 23.0555 21.9775 21.6669C23.3803 20.2836 23.8193 18.6047 23.9157 16.7092C24.0281 14.7557 24.0281 8.90569 23.9157 6.95217ZM21.3564 18.8053C20.9388 19.8401 20.1303 20.6374 19.0755 21.0545C17.496 21.6722 13.7481 21.5297 12.0027 21.5297C10.2572 21.5297 6.50396 21.6669 4.92984 21.0545C3.88042 20.6427 3.07195 19.8454 2.64897 18.8053C2.02253 17.2478 2.16709 13.5519 2.16709 11.8307C2.16709 10.1095 2.02789 6.40835 2.64897 4.85609C3.06659 3.82125 3.87507 3.024 4.92984 2.6069C6.50931 1.98916 10.2572 2.13172 12.0027 2.13172C13.7481 2.13172 17.5014 1.99444 19.0755 2.6069C20.1249 3.01872 20.9334 3.81597 21.3564 4.85609C21.9828 6.41363 21.8383 10.1095 21.8383 11.8307C21.8383 13.5519 21.9828 17.253 21.3564 18.8053Z" fill="#332D2D"/>
</g>
</svg>
