<svg width="20" height="20" viewBox="0 0 20 20" fill="none" xmlns="http://www.w3.org/2000/svg">
<g id="WhatsApp">
<g id="Vector">
<mask id="path-1-inside-1_4170_1897" fill="white">
<path fill-rule="evenodd" clip-rule="evenodd" d="M14.5125 11.985C14.2642 11.8608 13.0467 11.2625 12.82 11.1791C12.5933 11.0966 12.4283 11.0558 12.2625 11.3041C12.0975 11.5508 11.6233 12.1091 11.4792 12.2741C11.3342 12.44 11.19 12.46 10.9425 12.3366C10.695 12.2116 9.89667 11.9508 8.95083 11.1075C8.215 10.4508 7.7175 9.63997 7.57333 9.39164C7.42917 9.14414 7.5575 9.00997 7.68167 8.88664C7.79333 8.77581 7.92917 8.59747 8.05333 8.45331C8.1775 8.30831 8.21833 8.20497 8.30083 8.03914C8.38417 7.87414 8.3425 7.72997 8.28 7.60581C8.21833 7.48164 7.72333 6.26247 7.51667 5.76664C7.31583 5.28414 7.11167 5.34997 6.96 5.34164C6.815 5.33497 6.65 5.33331 6.485 5.33331C6.32 5.33331 6.05167 5.39497 5.825 5.64331C5.5975 5.89081 4.95833 6.48997 4.95833 7.70914C4.95833 8.92747 5.845 10.105 5.96917 10.2708C6.09333 10.4358 7.715 12.9375 10.1992 14.01C10.7908 14.265 11.2517 14.4175 11.6108 14.5308C12.2042 14.72 12.7442 14.6933 13.1708 14.6291C13.6458 14.5583 14.6358 14.03 14.8425 13.4516C15.0483 12.8733 15.0483 12.3775 14.9867 12.2741C14.925 12.1708 14.76 12.1091 14.5117 11.985H14.5125ZM9.99417 18.1541H9.99083C8.51536 18.1544 7.06698 17.7578 5.7975 17.0058L5.4975 16.8275L2.37917 17.6458L3.21167 14.6058L3.01583 14.2941C2.19095 12.9811 1.75441 11.4615 1.75667 9.91081C1.75833 5.36914 5.45333 1.67414 9.9975 1.67414C12.1975 1.67414 14.2658 2.53247 15.8208 4.08914C16.5878 4.85296 17.1957 5.76128 17.6094 6.76155C18.0231 7.76183 18.2343 8.83421 18.2308 9.91664C18.2292 14.4583 14.5342 18.1541 9.99417 18.1541ZM17.0042 2.90664C16.086 1.98241 14.9935 1.24959 13.7901 0.75064C12.5866 0.251693 11.2961 -0.00345791 9.99333 -2.68872e-05C4.53167 -2.68872e-05 0.085 4.44581 0.0833333 9.90997C0.0808025 11.6489 0.536979 13.3578 1.40583 14.8641L0 20L5.25333 18.6216C6.70656 19.4134 8.33508 19.8283 9.99 19.8283H9.99417C15.4558 19.8283 19.9025 15.3825 19.9042 9.91747C19.9082 8.6152 19.654 7.32506 19.1562 6.12167C18.6584 4.91828 17.927 3.82553 17.0042 2.90664Z"/>
</mask>
<path fill-rule="evenodd" clip-rule="evenodd" d="M14.5125 11.985C14.2642 11.8608 13.0467 11.2625 12.82 11.1791C12.5933 11.0966 12.4283 11.0558 12.2625 11.3041C12.0975 11.5508 11.6233 12.1091 11.4792 12.2741C11.3342 12.44 11.19 12.46 10.9425 12.3366C10.695 12.2116 9.89667 11.9508 8.95083 11.1075C8.215 10.4508 7.7175 9.63997 7.57333 9.39164C7.42917 9.14414 7.5575 9.00997 7.68167 8.88664C7.79333 8.77581 7.92917 8.59747 8.05333 8.45331C8.1775 8.30831 8.21833 8.20497 8.30083 8.03914C8.38417 7.87414 8.3425 7.72997 8.28 7.60581C8.21833 7.48164 7.72333 6.26247 7.51667 5.76664C7.31583 5.28414 7.11167 5.34997 6.96 5.34164C6.815 5.33497 6.65 5.33331 6.485 5.33331C6.32 5.33331 6.05167 5.39497 5.825 5.64331C5.5975 5.89081 4.95833 6.48997 4.95833 7.70914C4.95833 8.92747 5.845 10.105 5.96917 10.2708C6.09333 10.4358 7.715 12.9375 10.1992 14.01C10.7908 14.265 11.2517 14.4175 11.6108 14.5308C12.2042 14.72 12.7442 14.6933 13.1708 14.6291C13.6458 14.5583 14.6358 14.03 14.8425 13.4516C15.0483 12.8733 15.0483 12.3775 14.9867 12.2741C14.925 12.1708 14.76 12.1091 14.5117 11.985H14.5125ZM9.99417 18.1541H9.99083C8.51536 18.1544 7.06698 17.7578 5.7975 17.0058L5.4975 16.8275L2.37917 17.6458L3.21167 14.6058L3.01583 14.2941C2.19095 12.9811 1.75441 11.4615 1.75667 9.91081C1.75833 5.36914 5.45333 1.67414 9.9975 1.67414C12.1975 1.67414 14.2658 2.53247 15.8208 4.08914C16.5878 4.85296 17.1957 5.76128 17.6094 6.76155C18.0231 7.76183 18.2343 8.83421 18.2308 9.91664C18.2292 14.4583 14.5342 18.1541 9.99417 18.1541ZM17.0042 2.90664C16.086 1.98241 14.9935 1.24959 13.7901 0.75064C12.5866 0.251693 11.2961 -0.00345791 9.99333 -2.68872e-05C4.53167 -2.68872e-05 0.085 4.44581 0.0833333 9.90997C0.0808025 11.6489 0.536979 13.3578 1.40583 14.8641L0 20L5.25333 18.6216C6.70656 19.4134 8.33508 19.8283 9.99 19.8283H9.99417C15.4558 19.8283 19.9025 15.3825 19.9042 9.91747C19.9082 8.6152 19.654 7.32506 19.1562 6.12167C18.6584 4.91828 17.927 3.82553 17.0042 2.90664Z" fill="#332D2D"/>
<path d="M14.5125 11.985V12.985L14.9597 11.0905L14.5125 11.985ZM12.82 11.1791L13.1651 10.2406L13.162 10.2394L12.82 11.1791ZM12.2625 11.3041L13.0937 11.8601L13.0941 11.8595L12.2625 11.3041ZM11.4792 12.2741L12.232 12.9324L12.2322 12.9321L11.4792 12.2741ZM10.9425 12.3366L10.4917 13.2293L10.4965 13.2317L10.9425 12.3366ZM8.95083 11.1075L8.285 11.8536L8.28533 11.8539L8.95083 11.1075ZM7.57333 9.39164L8.43816 8.88958L8.43743 8.88831L7.57333 9.39164ZM7.68167 8.88664L6.97721 8.17689L6.97695 8.17716L7.68167 8.88664ZM8.05333 8.45331L8.81104 9.1059L8.8129 9.10374L8.05333 8.45331ZM8.30083 8.03914L7.4082 7.58832L7.40551 7.59373L8.30083 8.03914ZM8.28 7.60581L7.38436 8.05062L7.38678 8.05542L8.28 7.60581ZM7.51667 5.76664L6.59345 6.15092L6.59364 6.15137L7.51667 5.76664ZM6.96 5.34164L7.01486 4.34311L7.00593 4.3427L6.96 5.34164ZM5.825 5.64331L6.56123 6.32004L6.56359 6.31746L5.825 5.64331ZM5.96917 10.2708L5.16868 10.8702L5.17014 10.8721L5.96917 10.2708ZM10.1992 14.01L9.8028 14.9281L9.80338 14.9283L10.1992 14.01ZM11.6108 14.5308L11.9146 13.5781L11.9118 13.5772L11.6108 14.5308ZM13.1708 14.6291L13.0233 13.6401L13.0221 13.6403L13.1708 14.6291ZM14.8425 13.4516L15.7842 13.7881L15.7846 13.7869L14.8425 13.4516ZM14.5117 11.985V10.985L14.0645 12.8794L14.5117 11.985ZM9.99083 18.1541V17.1541H9.99065L9.99083 18.1541ZM5.7975 17.0058L5.28652 17.8654L5.28786 17.8662L5.7975 17.0058ZM5.4975 16.8275L6.00848 15.9679L5.64861 15.754L5.24367 15.8602L5.4975 16.8275ZM2.37917 17.6458L1.41468 17.3817L0.957024 19.0529L2.633 18.6131L2.37917 17.6458ZM3.21167 14.6058L4.17616 14.8699L4.29226 14.446L4.05839 14.0738L3.21167 14.6058ZM3.01583 14.2941L2.16906 14.8261L2.16911 14.8262L3.01583 14.2941ZM1.75667 9.91081L2.75667 9.91226L2.75667 9.91117L1.75667 9.91081ZM15.8208 4.08914L15.1133 4.79587L15.1152 4.79771L15.8208 4.08914ZM18.2308 9.91664L17.2308 9.91345L17.2308 9.91627L18.2308 9.91664ZM9.99333 -2.68872e-05V0.999977L9.99597 0.99997L9.99333 -2.68872e-05ZM0.0833333 9.90997L1.08333 9.91143L1.08333 9.91028L0.0833333 9.90997ZM1.40583 14.8641L2.37035 15.1282L2.48048 14.7258L2.27207 14.3645L1.40583 14.8641ZM0 20L-0.964518 19.736L-1.4219 21.4069L0.253783 20.9672L0 20ZM5.25333 18.6216L5.73177 17.7435L5.38334 17.5537L4.99955 17.6544L5.25333 18.6216ZM9.99 19.8283L9.98998 20.8283H9.99V19.8283ZM19.9042 9.91747L18.9042 9.91438L18.9042 9.91717L19.9042 9.91747ZM14.9597 11.0905C14.8307 11.026 14.46 10.8433 14.0927 10.6661C13.7561 10.5037 13.3368 10.3037 13.1651 10.2406L12.4749 12.1177C12.4703 12.116 12.4886 12.123 12.5425 12.1469C12.5902 12.168 12.6512 12.1959 12.7233 12.2294C12.867 12.2963 13.0435 12.3805 13.2235 12.4674C13.5838 12.6412 13.946 12.8197 14.0653 12.8794L14.9597 11.0905ZM13.162 10.2394C13.078 10.2089 12.7629 10.0823 12.4027 10.1243C11.9337 10.1789 11.6204 10.4649 11.4309 10.7488L13.0941 11.8595C13.0881 11.8684 13.0487 11.9259 12.9634 11.9859C12.8685 12.0527 12.7534 12.097 12.6341 12.1109C12.5274 12.1233 12.4525 12.1072 12.4352 12.1032C12.4215 12.1 12.4255 12.0997 12.478 12.1188L13.162 10.2394ZM11.4313 10.7481C11.3805 10.8242 11.2517 10.9889 11.0908 11.1844C10.9398 11.368 10.7916 11.5413 10.7261 11.6162L12.2322 12.9321C12.3659 12.7791 12.886 12.1705 13.0937 11.8601L11.4313 10.7481ZM10.7264 11.6159C10.7493 11.5897 10.8842 11.4508 11.129 11.4211C11.3322 11.3965 11.4475 11.471 11.3885 11.4416L10.4965 13.2317C10.685 13.3256 10.9961 13.4518 11.3696 13.4066C11.7846 13.3563 12.064 13.1244 12.232 12.9324L10.7264 11.6159ZM11.3933 11.444C11.0419 11.2666 10.4338 11.09 9.61634 10.3611L8.28533 11.8539C8.82598 12.3359 9.32961 12.6557 9.73746 12.8735C9.94053 12.982 10.1167 13.0635 10.2543 13.1245C10.3186 13.153 10.3847 13.1815 10.4235 13.1985C10.4454 13.2081 10.4617 13.2154 10.4744 13.2212C10.4874 13.2271 10.4922 13.2295 10.4917 13.2293L11.3933 11.444ZM9.61666 10.3614C8.99904 9.81019 8.56468 9.10751 8.43816 8.88958L6.7085 9.89371C6.87032 10.1724 7.43096 11.0914 8.285 11.8536L9.61666 10.3614ZM8.43743 8.88831C8.45303 8.91509 8.48968 8.98752 8.50391 9.09889C8.51911 9.21782 8.50296 9.33637 8.46465 9.43981C8.42979 9.53396 8.3853 9.59216 8.37061 9.61039C8.35876 9.62509 8.35295 9.62933 8.38639 9.59612L6.97695 8.17716C6.94007 8.21379 6.70742 8.42579 6.5891 8.74534C6.4358 9.15936 6.51822 9.56703 6.70924 9.89497L8.43743 8.88831ZM8.38612 9.59639C8.53067 9.45292 8.7567 9.169 8.81104 9.1059L7.29562 7.80071C7.10164 8.02595 7.056 8.09869 6.97721 8.17689L8.38612 9.59639ZM8.8129 9.10374C9.03676 8.84232 9.13694 8.6036 9.19616 8.48455L7.40551 7.59373C7.39338 7.61811 7.38232 7.64074 7.37277 7.66032C7.36269 7.68098 7.35524 7.69631 7.34769 7.71165C7.33291 7.74166 7.3249 7.757 7.31915 7.76732C7.31323 7.77794 7.30949 7.78451 7.29377 7.80288L8.8129 9.10374ZM9.19345 8.48996C9.48478 7.91312 9.29779 7.40366 9.17323 7.1562L7.38678 8.05542C7.3914 8.0646 7.36121 8.0099 7.35091 7.91476C7.33868 7.80176 7.35974 7.6843 7.40822 7.58832L9.19345 8.48996ZM9.17563 7.161C9.17863 7.16705 9.15212 7.10732 9.08643 6.95015C9.02927 6.81339 8.95606 6.63606 8.87749 6.4451C8.72176 6.06659 8.54419 5.63261 8.4397 5.38191L6.59364 6.15137C6.69581 6.3965 6.86908 6.82002 7.02793 7.20609C7.17271 7.55799 7.33285 7.94687 7.38437 8.05061L9.17563 7.161ZM8.43989 5.38236C8.29553 5.03554 8.063 4.66851 7.64679 4.47203C7.44605 4.37726 7.26318 4.35252 7.14085 4.3454C7.08477 4.34214 7.03533 4.34245 7.01629 4.34251C6.98675 4.3426 6.99885 4.34227 7.01486 4.34315L6.90514 6.34013C6.95906 6.3431 7.01073 6.34253 7.02217 6.3425C7.0441 6.34244 7.03706 6.34275 7.02459 6.34202C6.98948 6.33997 6.89864 6.3305 6.793 6.28063C6.567 6.17394 6.53697 6.01524 6.59345 6.15092L8.43989 5.38236ZM7.00593 4.3427C6.8374 4.33495 6.65395 4.33331 6.485 4.33331V6.33331C6.64605 6.33331 6.7926 6.335 6.91407 6.34058L7.00593 4.3427ZM6.485 4.33331C6.09146 4.33331 5.53526 4.47739 5.08641 4.96915L6.56359 6.31746C6.56748 6.3132 6.56799 6.31353 6.56445 6.31594C6.56114 6.3182 6.55621 6.32098 6.5498 6.32354C6.54369 6.32599 6.53631 6.32823 6.52715 6.32993C6.51847 6.33155 6.50492 6.33331 6.485 6.33331V4.33331ZM5.08877 4.96657C4.85457 5.22137 3.95833 6.07315 3.95833 7.70914H5.95833C5.95833 7.2861 6.06631 6.99965 6.17698 6.80379C6.29626 6.59269 6.42048 6.47316 6.56123 6.32004L5.08877 4.96657ZM3.95833 7.70914C3.95833 8.54323 4.25582 9.30588 4.52544 9.83719C4.80222 10.3826 5.09617 10.7733 5.16868 10.8702L6.76965 9.67145C6.718 9.60247 6.50653 9.32151 6.30894 8.93213C6.10418 8.52865 5.95833 8.09338 5.95833 7.70914H3.95833ZM5.17014 10.8721C5.16432 10.8644 5.16481 10.8647 5.18993 10.9007C5.20892 10.9279 5.23576 10.9664 5.26846 11.0126C5.33428 11.1056 5.42418 11.2303 5.53656 11.3784C5.76084 11.6739 6.07516 12.0633 6.46968 12.4841C7.24954 13.3158 8.38553 14.3162 9.8028 14.9281L10.5955 13.0919C8.40692 12.147 6.94824 9.90877 6.7682 9.66952L5.17014 10.8721ZM9.80338 14.9283C10.4382 15.2019 10.9342 15.3659 11.3099 15.4845L11.9118 13.5772C11.5691 13.469 11.1435 13.328 10.595 13.0916L9.80338 14.9283ZM11.3071 15.4836C12.1001 15.7364 12.809 15.6948 13.3196 15.618L13.0221 13.6403C12.6794 13.6918 12.3083 13.7036 11.9146 13.5781L11.3071 15.4836ZM13.3183 15.6182C13.7436 15.5548 14.2446 15.3304 14.6469 15.0726C15.0252 14.8302 15.565 14.4016 15.7842 13.7881L13.9008 13.1151C13.9145 13.0767 13.9166 13.0984 13.8466 13.1698C13.7822 13.2356 13.6872 13.3122 13.5677 13.3888C13.4499 13.4643 13.3259 13.5284 13.2155 13.5749C13.1608 13.5979 13.1142 13.6146 13.0775 13.6258C13.0391 13.6376 13.0215 13.6403 13.0233 13.6401L13.3183 15.6182ZM15.7846 13.7869C15.9166 13.416 15.986 13.0635 16.0112 12.7706C16.0237 12.6252 16.0267 12.4793 16.0161 12.3427C16.0097 12.2611 15.9897 12.0036 15.8454 11.7617L14.128 12.7866C14.0888 12.721 14.0665 12.6649 14.0546 12.6311C14.0419 12.5952 14.0347 12.5667 14.0308 12.5491C14.0267 12.5307 14.0245 12.5173 14.0235 12.51C14.0225 12.5024 14.0221 12.4983 14.0221 12.498C14.0221 12.4977 14.0223 12.5 14.0224 12.5049C14.0226 12.5099 14.0226 12.5169 14.0225 12.5259C14.0223 12.5442 14.0212 12.5687 14.0186 12.5989C14.0078 12.7243 13.9742 12.9089 13.9004 13.1163L15.7846 13.7869ZM15.8454 11.7617C15.6674 11.4634 15.3995 11.3151 15.2999 11.2605C15.2353 11.2251 15.1688 11.1927 15.1177 11.1679C15.0603 11.1401 15.0133 11.1178 14.9589 11.0905L14.0645 12.8794C14.1342 12.9143 14.201 12.9462 14.2463 12.9681C14.2707 12.9799 14.2897 12.9892 14.3059 12.9974C14.3221 13.0055 14.3323 13.0109 14.3385 13.0143C14.3447 13.0177 14.3438 13.0174 14.338 13.0137C14.3324 13.0101 14.3184 13.0009 14.2995 12.9859C14.2625 12.9566 14.1913 12.8928 14.128 12.7866L15.8454 11.7617ZM14.5117 12.985H14.5125V10.985H14.5117V12.985ZM9.99417 17.1541H9.99083V19.1541H9.99417V17.1541ZM9.99065 17.1541C8.69456 17.1544 7.42228 16.806 6.30714 16.1454L5.28786 17.8662C6.71168 18.7096 8.33615 19.1544 9.99102 19.1541L9.99065 17.1541ZM6.30848 16.1462L6.00848 15.9679L4.98652 17.6871L5.28652 17.8654L6.30848 16.1462ZM5.24367 15.8602L2.12534 16.6786L2.633 18.6131L5.75133 17.7947L5.24367 15.8602ZM3.34366 17.9099L4.17616 14.8699L2.24718 14.3417L1.41468 17.3817L3.34366 17.9099ZM4.05839 14.0738L3.86256 13.7621L2.16911 14.8262L2.36494 15.1378L4.05839 14.0738ZM3.8626 13.7622C3.1381 12.6089 2.75469 11.2742 2.75667 9.91226L0.756668 9.90935C0.754139 11.6487 1.2438 13.3533 2.16906 14.8261L3.8626 13.7622ZM2.75667 9.91117C2.75813 5.92163 6.00549 2.67414 9.9975 2.67414V0.67414C4.90118 0.67414 0.758536 4.81665 0.756667 9.91044L2.75667 9.91117ZM9.9975 2.67414C11.9318 2.67414 13.7457 3.42675 15.1133 4.79587L16.5283 3.38241C14.786 1.6382 12.4632 0.67414 9.9975 0.67414V2.67414ZM15.1152 4.79771C15.7885 5.46823 16.3222 6.26561 16.6853 7.14372L18.5335 6.37939C18.0693 5.25694 17.3871 4.23768 16.5265 3.38057L15.1152 4.79771ZM16.6853 7.14372C17.0484 8.02182 17.2339 8.96322 17.2308 9.91345L19.2308 9.91983C19.2347 8.70519 18.9977 7.50184 18.5335 6.37939L16.6853 7.14372ZM17.2308 9.91627C17.2294 13.9063 13.9815 17.1541 9.99417 17.1541V19.1541C15.0868 19.1541 19.229 15.0103 19.2308 9.91701L17.2308 9.91627ZM17.7136 2.20186C16.7022 1.18376 15.4987 0.376509 14.1731 -0.173114L13.4071 1.67439C14.4883 2.12267 15.4698 2.78106 16.2947 3.61142L17.7136 2.20186ZM14.1731 -0.173114C12.8474 -0.722737 11.4258 -1.0038 9.9907 -1.00002L9.99597 0.99997C11.1664 0.996887 12.3259 1.22612 13.4071 1.67439L14.1731 -0.173114ZM9.99333 -1.00003C3.97927 -1.00003 -0.914832 3.89357 -0.916667 9.90967L1.08333 9.91028C1.08483 4.99804 5.08406 0.999973 9.99333 0.999973V-1.00003ZM-0.916666 9.90852C-0.919452 11.8234 -0.417136 13.7051 0.5396 15.3638L2.27207 14.3645C1.49109 13.0105 1.08106 11.4745 1.08333 9.91143L-0.916666 9.90852ZM0.441316 14.6001L-0.964518 19.736L0.964518 20.264L2.37035 15.1282L0.441316 14.6001ZM0.253783 20.9672L5.50712 19.5889L4.99955 17.6544L-0.253783 19.0327L0.253783 20.9672ZM4.7749 19.4998C6.37491 20.3715 8.16791 20.8283 9.98998 20.8283L9.99002 18.8283C8.50225 18.8283 7.03822 18.4553 5.73177 17.7435L4.7749 19.4998ZM9.99 20.8283H9.99417V18.8283H9.99V20.8283ZM9.99417 20.8283C16.0083 20.8283 20.9023 15.9347 20.9042 9.91778L18.9042 9.91717C18.9027 14.8303 14.9034 18.8283 9.99417 18.8283V20.8283ZM20.9042 9.92057C20.9086 8.4861 20.6286 7.06498 20.0803 5.73943L18.2321 6.5039C18.6794 7.58513 18.9078 8.74431 18.9042 9.91438L20.9042 9.92057ZM20.0803 5.73943C19.5319 4.41388 18.7263 3.21021 17.7098 2.19803L16.2986 3.61525C17.1277 4.44086 17.7849 5.42267 18.2321 6.5039L20.0803 5.73943Z" fill="#332D2D" mask="url(#path-1-inside-1_4170_1897)"/>
</g>
</g>
</svg>
